<svg width="30" height="30" viewBox="0 0 30 30" fill="none" xmlns="http://www.w3.org/2000/svg">
<path d="M29.5538 6.17125C28.51 6.63375 27.3888 6.94625 26.21 7.0875C27.4263 6.35974 28.3362 5.21434 28.77 3.865C27.6273 4.54374 26.3767 5.0215 25.0725 5.2775C24.1955 4.34109 23.0338 3.72041 21.7679 3.51185C20.502 3.30328 19.2026 3.51849 18.0716 4.12407C16.9405 4.72965 16.041 5.69171 15.5127 6.86088C14.9844 8.03006 14.8569 9.34094 15.15 10.59C12.8346 10.4737 10.5696 9.87194 8.5018 8.82364C6.43404 7.77533 4.60982 6.30396 3.14751 4.505C2.64751 5.3675 2.36001 6.3675 2.36001 7.4325C2.35946 8.39125 2.59556 9.33531 3.04736 10.1809C3.49917 11.0265 4.15272 11.7476 4.95002 12.28C4.02536 12.2506 3.12111 12.0007 2.31251 11.5513V11.6263C2.31242 12.9709 2.77756 14.2742 3.62899 15.315C4.48043 16.3558 5.66573 17.0699 6.98377 17.3363C6.12599 17.5684 5.22669 17.6026 4.35376 17.4363C4.72564 18.5933 5.45001 19.605 6.42547 20.3299C7.40094 21.0548 8.57866 21.4565 9.79377 21.4788C7.73106 23.098 5.18362 23.9764 2.56126 23.9725C2.09674 23.9726 1.63261 23.9455 1.17126 23.8913C3.83311 25.6027 6.93169 26.511 10.0963 26.5075C20.8088 26.5075 26.665 17.635 26.665 9.94C26.665 9.69 26.6588 9.4375 26.6475 9.1875C27.7866 8.36372 28.7699 7.34362 29.5513 6.175L29.5538 6.17125V6.17125Z" fill="white"/>
</svg>
